<svg xmlns="http://www.w3.org/2000/svg" viewBox="0 0 200 220" width="200" height="220">
  <!-- Background -->
  <rect width="200" height="220" fill="#2d5a27"/>

  <!-- Large gear (back/left) -->
  <g transform="translate(85, 65)">
    <!-- Main gear body -->
    <path d="
      M0,-42 L6,-42 L8,-32 L12,-31 L18,-40 L23,-37 L20,-27 L24,-24 L32,-30 L36,-25 L28,-17 L30,-12 L40,-10 L40,-4 L30,-4 L30,0 L40,2 L40,8 L30,10 L28,15 L36,23 L32,28 L24,22 L20,25 L23,35 L18,38 L12,29 L8,30 L6,40 L0,40 L-2,30 L-6,29 L-12,38 L-17,35 L-14,25 L-18,22 L-26,28 L-30,23 L-22,15 L-24,10 L-34,8 L-34,2 L-24,0 L-24,-4 L-34,-4 L-34,-10 L-24,-12 L-22,-17 L-30,-25 L-26,-30 L-18,-24 L-14,-27 L-17,-37 L-12,-40 L-6,-31 L-2,-32 L0,-42
    " fill="#4a8c3f"/>
    <circle cx="3" cy="-1" r="12" fill="#2d5a27"/>
  </g>

  <!-- Small gear (front/right) -->
  <g transform="translate(125, 95)">
    <!-- Main gear body -->
    <path d="
      M0,-32 L5,-32 L6,-24 L9,-23 L14,-30 L18,-28 L15,-20 L18,-18 L24,-23 L27,-19 L21,-13 L23,-9 L30,-8 L30,-3 L23,-2 L23,2 L30,3 L30,8 L23,9 L21,13 L27,19 L24,23 L18,18 L15,20 L18,28 L14,30 L9,23 L6,24 L5,32 L0,32 L-1,24 L-4,23 L-9,30 L-13,28 L-10,20 L-13,18 L-19,23 L-22,19 L-16,13 L-18,9 L-25,8 L-25,3 L-18,2 L-18,-2 L-25,-3 L-25,-8 L-18,-9 L-16,-13 L-22,-19 L-19,-23 L-13,-18 L-10,-20 L-13,-28 L-9,-30 L-4,-23 L-1,-24 L0,-32
    " fill="#5ca84e"/>
    <circle cx="2" cy="0" r="9" fill="#2d5a27"/>
  </g>

  <!-- SD Text -->
  <text x="100" y="90" font-family="Arial, Helvetica, sans-serif" font-size="36" font-weight="bold" fill="white" text-anchor="middle">SD</text>

  <!-- StackDrive Text -->
  <text x="100" y="175" font-family="Arial, Helvetica, sans-serif" font-size="26" font-weight="bold" fill="white" text-anchor="middle">StackDrive</text>
</svg>
