<svg xmlns="http://www.w3.org/2000/svg" viewBox="0 0 200 200" width="200" height="200">
  <!-- SD Text - 30% height (top section) -->
  <text x="100" y="45"
        font-family="Inter, Arial, Helvetica, sans-serif"
        font-size="38"
        font-weight="800"
        fill="#4ADE80"
        text-anchor="middle">SD</text>

  <!-- Gear outline (ring shape using fill-rule evenodd for transparent center) -->
  <path fill-rule="evenodd" d="
    M100,55 L108,55 L110,63 L118,65 L122,57 L130,61 L126,69 L132,75 L140,73 L142,83 L134,87 L136,95 L146,99 L146,111 L136,115 L134,123 L142,127 L140,137 L132,135 L126,141 L130,149 L122,153 L118,145 L110,147 L108,155 L92,155 L90,147 L82,145 L78,153 L70,149 L74,141 L68,135 L60,137 L58,127 L66,123 L64,115 L54,111 L54,99 L64,95 L66,87 L58,83 L60,73 L68,75 L74,69 L70,61 L78,57 L82,65 L90,63 L92,55 Z
    M100,77 A28,28 0 1,1 100,133 A28,28 0 1,1 100,77 Z
  " fill="#4ADE80"/>

  <!-- Inner chevron/arrow patterns (stacking/data movement) -->
  <!-- Top chevron -->
  <path d="M84,87 L100,97 L116,87 L116,93 L100,103 L84,93 Z" fill="#4ADE80"/>
  <!-- Middle chevron -->
  <path d="M84,99 L100,109 L116,99 L116,105 L100,115 L84,105 Z" fill="#4ADE80"/>
  <!-- Bottom chevron -->
  <path d="M84,111 L100,121 L116,111 L116,117 L100,127 L84,117 Z" fill="#4ADE80"/>

  <!-- StackDrive Text - 20% height (bottom section) -->
  <text x="100" y="180"
        font-family="Inter, Arial, Helvetica, sans-serif"
        font-size="22"
        font-weight="600"
        fill="#4ADE80"
        text-anchor="middle">StackDrive</text>
</svg>
